<svg width="41" height="40" viewBox="0 0 41 40" fill="none" xmlns="http://www.w3.org/2000/svg">
<path d="M8.025 37.1252L27.05 18.1002L23.2125 14.2627L7.15 30.3127C5.5125 31.9502 5.5125 34.6127 7.15 36.2502L8.025 37.1252Z" fill="url(#paint0_linear_475_9003)"/>
<path d="M8.025 37.1252L27.05 18.1002L23.2125 14.2627L7.15 30.3127C5.5125 31.9502 5.5125 34.6127 7.15 36.2502L8.025 37.1252Z" fill="url(#paint1_linear_475_9003)"/>
<path d="M8.025 37.1252L27.05 18.1002L23.2125 14.2627L7.15 30.3127C5.5125 31.9502 5.5125 34.6127 7.15 36.2502L8.025 37.1252Z" fill="url(#paint2_linear_475_9003)"/>
<path d="M8.025 37.1252L27.05 18.1002L23.2125 14.2627L7.15 30.3127C5.5125 31.9502 5.5125 34.6127 7.15 36.2502L8.025 37.1252Z" fill="url(#paint3_linear_475_9003)"/>
<path d="M20.1697 17.1356C20.0116 17.2914 20.0107 17.5463 20.1677 17.7033L23.8216 21.3571C23.9789 21.5144 24.2343 21.5132 24.39 21.3544L25.9299 19.7845C26.0505 19.6616 26.2371 19.6313 26.3949 19.7003C31.4549 21.9121 37.4772 17.2595 37.4772 11.9498C37.4772 7.4498 33.8522 3.7998 29.3522 3.7998C24.8522 3.7998 21.2022 7.4498 21.2022 11.9498C21.2022 13.0969 21.4139 14.13 21.8449 15.1037C21.9144 15.2608 21.8837 15.4457 21.7614 15.5664L20.1697 17.1356ZM25.5522 11.9498C25.5522 9.8623 27.2522 8.1623 29.3397 8.1623C31.4272 8.1623 33.1272 9.8623 33.1272 11.9498C33.1272 14.0373 31.4272 15.7373 29.3397 15.7373C27.2522 15.7373 25.5522 14.0498 25.5522 11.9498Z" fill="url(#paint4_linear_475_9003)"/>
<path d="M20.1697 17.1356C20.0116 17.2914 20.0107 17.5463 20.1677 17.7033L23.8216 21.3571C23.9789 21.5144 24.2343 21.5132 24.39 21.3544L25.9299 19.7845C26.0505 19.6616 26.2371 19.6313 26.3949 19.7003C31.4549 21.9121 37.4772 17.2595 37.4772 11.9498C37.4772 7.4498 33.8522 3.7998 29.3522 3.7998C24.8522 3.7998 21.2022 7.4498 21.2022 11.9498C21.2022 13.0969 21.4139 14.13 21.8449 15.1037C21.9144 15.2608 21.8837 15.4457 21.7614 15.5664L20.1697 17.1356ZM25.5522 11.9498C25.5522 9.8623 27.2522 8.1623 29.3397 8.1623C31.4272 8.1623 33.1272 9.8623 33.1272 11.9498C33.1272 14.0373 31.4272 15.7373 29.3397 15.7373C27.2522 15.7373 25.5522 14.0498 25.5522 11.9498Z" fill="url(#paint5_linear_475_9003)"/>
<path d="M20.1697 17.1356C20.0116 17.2914 20.0107 17.5463 20.1677 17.7033L23.8216 21.3571C23.9789 21.5144 24.2343 21.5132 24.39 21.3544L25.9299 19.7845C26.0505 19.6616 26.2371 19.6313 26.3949 19.7003C31.4549 21.9121 37.4772 17.2595 37.4772 11.9498C37.4772 7.4498 33.8522 3.7998 29.3522 3.7998C24.8522 3.7998 21.2022 7.4498 21.2022 11.9498C21.2022 13.0969 21.4139 14.13 21.8449 15.1037C21.9144 15.2608 21.8837 15.4457 21.7614 15.5664L20.1697 17.1356ZM25.5522 11.9498C25.5522 9.8623 27.2522 8.1623 29.3397 8.1623C31.4272 8.1623 33.1272 9.8623 33.1272 11.9498C33.1272 14.0373 31.4272 15.7373 29.3397 15.7373C27.2522 15.7373 25.5522 14.0498 25.5522 11.9498Z" fill="url(#paint6_linear_475_9003)"/>
<path d="M20.1697 17.1356C20.0116 17.2914 20.0107 17.5463 20.1677 17.7033L23.8216 21.3571C23.9789 21.5144 24.2343 21.5132 24.39 21.3544L25.9299 19.7845C26.0505 19.6616 26.2371 19.6313 26.3949 19.7003C31.4549 21.9121 37.4772 17.2595 37.4772 11.9498C37.4772 7.4498 33.8522 3.7998 29.3522 3.7998C24.8522 3.7998 21.2022 7.4498 21.2022 11.9498C21.2022 13.0969 21.4139 14.13 21.8449 15.1037C21.9144 15.2608 21.8837 15.4457 21.7614 15.5664L20.1697 17.1356ZM25.5522 11.9498C25.5522 9.8623 27.2522 8.1623 29.3397 8.1623C31.4272 8.1623 33.1272 9.8623 33.1272 11.9498C33.1272 14.0373 31.4272 15.7373 29.3397 15.7373C27.2522 15.7373 25.5522 14.0498 25.5522 11.9498Z" fill="url(#paint7_linear_475_9003)"/>
<path d="M20.1697 17.1356C20.0116 17.2914 20.0107 17.5463 20.1677 17.7033L23.8216 21.3571C23.9789 21.5144 24.2343 21.5132 24.39 21.3544L25.9299 19.7845C26.0505 19.6616 26.2371 19.6313 26.3949 19.7003C31.4549 21.9121 37.4772 17.2595 37.4772 11.9498C37.4772 7.4498 33.8522 3.7998 29.3522 3.7998C24.8522 3.7998 21.2022 7.4498 21.2022 11.9498C21.2022 13.0969 21.4139 14.13 21.8449 15.1037C21.9144 15.2608 21.8837 15.4457 21.7614 15.5664L20.1697 17.1356ZM25.5522 11.9498C25.5522 9.8623 27.2522 8.1623 29.3397 8.1623C31.4272 8.1623 33.1272 9.8623 33.1272 11.9498C33.1272 14.0373 31.4272 15.7373 29.3397 15.7373C27.2522 15.7373 25.5522 14.0498 25.5522 11.9498Z" fill="url(#paint8_linear_475_9003)"/>
<path d="M20.1697 17.1356C20.0116 17.2914 20.0107 17.5463 20.1677 17.7033L23.8216 21.3571C23.9789 21.5144 24.2343 21.5132 24.39 21.3544L25.9299 19.7845C26.0505 19.6616 26.2371 19.6313 26.3949 19.7003C31.4549 21.9121 37.4772 17.2595 37.4772 11.9498C37.4772 7.4498 33.8522 3.7998 29.3522 3.7998C24.8522 3.7998 21.2022 7.4498 21.2022 11.9498C21.2022 13.0969 21.4139 14.13 21.8449 15.1037C21.9144 15.2608 21.8837 15.4457 21.7614 15.5664L20.1697 17.1356ZM25.5522 11.9498C25.5522 9.8623 27.2522 8.1623 29.3397 8.1623C31.4272 8.1623 33.1272 9.8623 33.1272 11.9498C33.1272 14.0373 31.4272 15.7373 29.3397 15.7373C27.2522 15.7373 25.5522 14.0498 25.5522 11.9498Z" fill="url(#paint9_linear_475_9003)" fill-opacity="0.72"/>
<path d="M20.1697 17.1356C20.0116 17.2914 20.0107 17.5463 20.1677 17.7033L23.8216 21.3571C23.9789 21.5144 24.2343 21.5132 24.39 21.3544L25.9299 19.7845C26.0505 19.6616 26.2371 19.6313 26.3949 19.7003C31.4549 21.9121 37.4772 17.2595 37.4772 11.9498C37.4772 7.4498 33.8522 3.7998 29.3522 3.7998C24.8522 3.7998 21.2022 7.4498 21.2022 11.9498C21.2022 13.0969 21.4139 14.13 21.8449 15.1037C21.9144 15.2608 21.8837 15.4457 21.7614 15.5664L20.1697 17.1356ZM25.5522 11.9498C25.5522 9.8623 27.2522 8.1623 29.3397 8.1623C31.4272 8.1623 33.1272 9.8623 33.1272 11.9498C33.1272 14.0373 31.4272 15.7373 29.3397 15.7373C27.2522 15.7373 25.5522 14.0498 25.5522 11.9498Z" fill="url(#paint10_linear_475_9003)" fill-opacity="0.72"/>
<path d="M20.1697 17.1356C20.0116 17.2914 20.0107 17.5463 20.1677 17.7033L23.8216 21.3571C23.9789 21.5144 24.2343 21.5132 24.39 21.3544L25.9299 19.7845C26.0505 19.6616 26.2371 19.6313 26.3949 19.7003C31.4549 21.9121 37.4772 17.2595 37.4772 11.9498C37.4772 7.4498 33.8522 3.7998 29.3522 3.7998C24.8522 3.7998 21.2022 7.4498 21.2022 11.9498C21.2022 13.0969 21.4139 14.13 21.8449 15.1037C21.9144 15.2608 21.8837 15.4457 21.7614 15.5664L20.1697 17.1356ZM25.5522 11.9498C25.5522 9.8623 27.2522 8.1623 29.3397 8.1623C31.4272 8.1623 33.1272 9.8623 33.1272 11.9498C33.1272 14.0373 31.4272 15.7373 29.3397 15.7373C27.2522 15.7373 25.5522 14.0498 25.5522 11.9498Z" fill="url(#paint11_radial_475_9003)" fill-opacity="0.72"/>
<path d="M20.1697 17.1356C20.0116 17.2914 20.0107 17.5463 20.1677 17.7033L23.8216 21.3571C23.9789 21.5144 24.2343 21.5132 24.39 21.3544L25.9299 19.7845C26.0505 19.6616 26.2371 19.6313 26.3949 19.7003C31.4549 21.9121 37.4772 17.2595 37.4772 11.9498C37.4772 7.4498 33.8522 3.7998 29.3522 3.7998C24.8522 3.7998 21.2022 7.4498 21.2022 11.9498C21.2022 13.0969 21.4139 14.13 21.8449 15.1037C21.9144 15.2608 21.8837 15.4457 21.7614 15.5664L20.1697 17.1356ZM25.5522 11.9498C25.5522 9.8623 27.2522 8.1623 29.3397 8.1623C31.4272 8.1623 33.1272 9.8623 33.1272 11.9498C33.1272 14.0373 31.4272 15.7373 29.3397 15.7373C27.2522 15.7373 25.5522 14.0498 25.5522 11.9498Z" fill="url(#paint12_radial_475_9003)" fill-opacity="0.42"/>
<path d="M20.1697 17.1356C20.0116 17.2914 20.0107 17.5463 20.1677 17.7033L23.8216 21.3571C23.9789 21.5144 24.2343 21.5132 24.39 21.3544L25.9299 19.7845C26.0505 19.6616 26.2371 19.6313 26.3949 19.7003C31.4549 21.9121 37.4772 17.2595 37.4772 11.9498C37.4772 7.4498 33.8522 3.7998 29.3522 3.7998C24.8522 3.7998 21.2022 7.4498 21.2022 11.9498C21.2022 13.0969 21.4139 14.13 21.8449 15.1037C21.9144 15.2608 21.8837 15.4457 21.7614 15.5664L20.1697 17.1356ZM25.5522 11.9498C25.5522 9.8623 27.2522 8.1623 29.3397 8.1623C31.4272 8.1623 33.1272 9.8623 33.1272 11.9498C33.1272 14.0373 31.4272 15.7373 29.3397 15.7373C27.2522 15.7373 25.5522 14.0498 25.5522 11.9498Z" fill="url(#paint13_radial_475_9003)"/>
<path d="M20.1697 17.1356C20.0116 17.2914 20.0107 17.5463 20.1677 17.7033L23.8216 21.3571C23.9789 21.5144 24.2343 21.5132 24.39 21.3544L25.9299 19.7845C26.0505 19.6616 26.2371 19.6313 26.3949 19.7003C31.4549 21.9121 37.4772 17.2595 37.4772 11.9498C37.4772 7.4498 33.8522 3.7998 29.3522 3.7998C24.8522 3.7998 21.2022 7.4498 21.2022 11.9498C21.2022 13.0969 21.4139 14.13 21.8449 15.1037C21.9144 15.2608 21.8837 15.4457 21.7614 15.5664L20.1697 17.1356ZM25.5522 11.9498C25.5522 9.8623 27.2522 8.1623 29.3397 8.1623C31.4272 8.1623 33.1272 9.8623 33.1272 11.9498C33.1272 14.0373 31.4272 15.7373 29.3397 15.7373C27.2522 15.7373 25.5522 14.0498 25.5522 11.9498Z" fill="url(#paint14_radial_475_9003)"/>
<path d="M20.1697 17.1356C20.0116 17.2914 20.0107 17.5463 20.1677 17.7033L23.8216 21.3571C23.9789 21.5144 24.2343 21.5132 24.39 21.3544L25.9299 19.7845C26.0505 19.6616 26.2371 19.6313 26.3949 19.7003C31.4549 21.9121 37.4772 17.2595 37.4772 11.9498C37.4772 7.4498 33.8522 3.7998 29.3522 3.7998C24.8522 3.7998 21.2022 7.4498 21.2022 11.9498C21.2022 13.0969 21.4139 14.13 21.8449 15.1037C21.9144 15.2608 21.8837 15.4457 21.7614 15.5664L20.1697 17.1356ZM25.5522 11.9498C25.5522 9.8623 27.2522 8.1623 29.3397 8.1623C31.4272 8.1623 33.1272 9.8623 33.1272 11.9498C33.1272 14.0373 31.4272 15.7373 29.3397 15.7373C27.2522 15.7373 25.5522 14.0498 25.5522 11.9498Z" fill="url(#paint15_radial_475_9003)"/>
<path d="M20.1697 17.1356C20.0116 17.2914 20.0107 17.5463 20.1677 17.7033L23.8216 21.3571C23.9789 21.5144 24.2343 21.5132 24.39 21.3544L25.9299 19.7845C26.0505 19.6616 26.2371 19.6313 26.3949 19.7003C31.4549 21.9121 37.4772 17.2595 37.4772 11.9498C37.4772 7.4498 33.8522 3.7998 29.3522 3.7998C24.8522 3.7998 21.2022 7.4498 21.2022 11.9498C21.2022 13.0969 21.4139 14.13 21.8449 15.1037C21.9144 15.2608 21.8837 15.4457 21.7614 15.5664L20.1697 17.1356ZM25.5522 11.9498C25.5522 9.8623 27.2522 8.1623 29.3397 8.1623C31.4272 8.1623 33.1272 9.8623 33.1272 11.9498C33.1272 14.0373 31.4272 15.7373 29.3397 15.7373C27.2522 15.7373 25.5522 14.0498 25.5522 11.9498Z" fill="url(#paint16_radial_475_9003)"/>
<path d="M20.1697 17.1356C20.0116 17.2914 20.0107 17.5463 20.1677 17.7033L23.8216 21.3571C23.9789 21.5144 24.2343 21.5132 24.39 21.3544L25.9299 19.7845C26.0505 19.6616 26.2371 19.6313 26.3949 19.7003C31.4549 21.9121 37.4772 17.2595 37.4772 11.9498C37.4772 7.4498 33.8522 3.7998 29.3522 3.7998C24.8522 3.7998 21.2022 7.4498 21.2022 11.9498C21.2022 13.0969 21.4139 14.13 21.8449 15.1037C21.9144 15.2608 21.8837 15.4457 21.7614 15.5664L20.1697 17.1356ZM25.5522 11.9498C25.5522 9.8623 27.2522 8.1623 29.3397 8.1623C31.4272 8.1623 33.1272 9.8623 33.1272 11.9498C33.1272 14.0373 31.4272 15.7373 29.3397 15.7373C27.2522 15.7373 25.5522 14.0498 25.5522 11.9498Z" fill="url(#paint17_radial_475_9003)"/>
<path d="M31.9508 37.125L12.9258 18.1L16.6758 14.1875L32.7258 30.2375C34.3758 31.8875 34.3883 34.7 32.7508 36.3375L31.9508 37.125Z" fill="url(#paint18_linear_475_9003)"/>
<path d="M31.9508 37.125L12.9258 18.1L16.6758 14.1875L32.7258 30.2375C34.3758 31.8875 34.3883 34.7 32.7508 36.3375L31.9508 37.125Z" fill="url(#paint19_linear_475_9003)"/>
<path d="M31.9508 37.125L12.9258 18.1L16.6758 14.1875L32.7258 30.2375C34.3758 31.8875 34.3883 34.7 32.7508 36.3375L31.9508 37.125Z" fill="url(#paint20_linear_475_9003)"/>
<path d="M19.8501 22.9893C20.6756 22.9893 21.3448 22.3202 21.3448 21.4947C21.3448 20.6692 20.6756 20 19.8501 20C19.0247 20 18.3555 20.6692 18.3555 21.4947C18.3555 22.3202 19.0247 22.9893 19.8501 22.9893Z" fill="url(#paint21_radial_475_9003)"/>
<path d="M19.9508 22.675C20.6895 22.675 21.2883 22.0762 21.2883 21.3375C21.2883 20.5988 20.6895 20 19.9508 20C19.2121 20 18.6133 20.5988 18.6133 21.3375C18.6133 22.0762 19.2121 22.675 19.9508 22.675Z" fill="#A79AAC"/>
<path d="M19.9508 22.675C20.6895 22.675 21.2883 22.0762 21.2883 21.3375C21.2883 20.5988 20.6895 20 19.9508 20C19.2121 20 18.6133 20.5988 18.6133 21.3375C18.6133 22.0762 19.2121 22.675 19.9508 22.675Z" fill="url(#paint22_radial_475_9003)"/>
<path d="M19.9508 22.675C20.6895 22.675 21.2883 22.0762 21.2883 21.3375C21.2883 20.5988 20.6895 20 19.9508 20C19.2121 20 18.6133 20.5988 18.6133 21.3375C18.6133 22.0762 19.2121 22.675 19.9508 22.675Z" fill="url(#paint23_radial_475_9003)"/>
<path d="M19.9508 22.675C20.6895 22.675 21.2883 22.0762 21.2883 21.3375C21.2883 20.5988 20.6895 20 19.9508 20C19.2121 20 18.6133 20.5988 18.6133 21.3375C18.6133 22.0762 19.2121 22.675 19.9508 22.675Z" fill="url(#paint24_radial_475_9003)"/>
<path d="M19.9508 22.675C20.6895 22.675 21.2883 22.0762 21.2883 21.3375C21.2883 20.5988 20.6895 20 19.9508 20C19.2121 20 18.6133 20.5988 18.6133 21.3375C18.6133 22.0762 19.2121 22.675 19.9508 22.675Z" fill="url(#paint25_radial_475_9003)"/>
<path d="M18.4375 15.4152C18.3217 15.2994 18.2899 15.1226 18.3505 14.9705C20.7404 8.96644 15.9373 3.7998 10.6016 3.7998C6.10156 3.7998 2.47656 7.4498 2.47656 11.9498C2.47656 16.4498 6.10156 20.0998 10.6016 20.0998C11.7477 20.0998 12.5685 20.0938 13.5064 19.6978C13.6629 19.6317 13.8455 19.6601 13.9664 19.7795L15.5701 21.364C15.7263 21.5183 15.9776 21.5179 16.1333 21.3631L19.9863 17.5313C20.1432 17.3752 20.1436 17.1213 19.9871 16.9648L18.4375 15.4152ZM10.6141 15.7373C8.52656 15.7373 6.82656 14.0373 6.82656 11.9498C6.82656 9.8623 8.52656 8.1623 10.6141 8.1623C12.7016 8.1623 14.4016 9.8623 14.4016 11.9498C14.4016 14.0498 12.7016 15.7373 10.6141 15.7373Z" fill="url(#paint26_linear_475_9003)"/>
<path d="M18.4375 15.4152C18.3217 15.2994 18.2899 15.1226 18.3505 14.9705C20.7404 8.96644 15.9373 3.7998 10.6016 3.7998C6.10156 3.7998 2.47656 7.4498 2.47656 11.9498C2.47656 16.4498 6.10156 20.0998 10.6016 20.0998C11.7477 20.0998 12.5685 20.0938 13.5064 19.6978C13.6629 19.6317 13.8455 19.6601 13.9664 19.7795L15.5701 21.364C15.7263 21.5183 15.9776 21.5179 16.1333 21.3631L19.9863 17.5313C20.1432 17.3752 20.1436 17.1213 19.9871 16.9648L18.4375 15.4152ZM10.6141 15.7373C8.52656 15.7373 6.82656 14.0373 6.82656 11.9498C6.82656 9.8623 8.52656 8.1623 10.6141 8.1623C12.7016 8.1623 14.4016 9.8623 14.4016 11.9498C14.4016 14.0498 12.7016 15.7373 10.6141 15.7373Z" fill="url(#paint27_linear_475_9003)"/>
<path d="M18.4375 15.4152C18.3217 15.2994 18.2899 15.1226 18.3505 14.9705C20.7404 8.96644 15.9373 3.7998 10.6016 3.7998C6.10156 3.7998 2.47656 7.4498 2.47656 11.9498C2.47656 16.4498 6.10156 20.0998 10.6016 20.0998C11.7477 20.0998 12.5685 20.0938 13.5064 19.6978C13.6629 19.6317 13.8455 19.6601 13.9664 19.7795L15.5701 21.364C15.7263 21.5183 15.9776 21.5179 16.1333 21.3631L19.9863 17.5313C20.1432 17.3752 20.1436 17.1213 19.9871 16.9648L18.4375 15.4152ZM10.6141 15.7373C8.52656 15.7373 6.82656 14.0373 6.82656 11.9498C6.82656 9.8623 8.52656 8.1623 10.6141 8.1623C12.7016 8.1623 14.4016 9.8623 14.4016 11.9498C14.4016 14.0498 12.7016 15.7373 10.6141 15.7373Z" fill="url(#paint28_linear_475_9003)"/>
<path d="M18.4375 15.4152C18.3217 15.2994 18.2899 15.1226 18.3505 14.9705C20.7404 8.96644 15.9373 3.7998 10.6016 3.7998C6.10156 3.7998 2.47656 7.4498 2.47656 11.9498C2.47656 16.4498 6.10156 20.0998 10.6016 20.0998C11.7477 20.0998 12.5685 20.0938 13.5064 19.6978C13.6629 19.6317 13.8455 19.6601 13.9664 19.7795L15.5701 21.364C15.7263 21.5183 15.9776 21.5179 16.1333 21.3631L19.9863 17.5313C20.1432 17.3752 20.1436 17.1213 19.9871 16.9648L18.4375 15.4152ZM10.6141 15.7373C8.52656 15.7373 6.82656 14.0373 6.82656 11.9498C6.82656 9.8623 8.52656 8.1623 10.6141 8.1623C12.7016 8.1623 14.4016 9.8623 14.4016 11.9498C14.4016 14.0498 12.7016 15.7373 10.6141 15.7373Z" fill="url(#paint29_linear_475_9003)"/>
<path d="M18.4375 15.4152C18.3217 15.2994 18.2899 15.1226 18.3505 14.9705C20.7404 8.96644 15.9373 3.7998 10.6016 3.7998C6.10156 3.7998 2.47656 7.4498 2.47656 11.9498C2.47656 16.4498 6.10156 20.0998 10.6016 20.0998C11.7477 20.0998 12.5685 20.0938 13.5064 19.6978C13.6629 19.6317 13.8455 19.6601 13.9664 19.7795L15.5701 21.364C15.7263 21.5183 15.9776 21.5179 16.1333 21.3631L19.9863 17.5313C20.1432 17.3752 20.1436 17.1213 19.9871 16.9648L18.4375 15.4152ZM10.6141 15.7373C8.52656 15.7373 6.82656 14.0373 6.82656 11.9498C6.82656 9.8623 8.52656 8.1623 10.6141 8.1623C12.7016 8.1623 14.4016 9.8623 14.4016 11.9498C14.4016 14.0498 12.7016 15.7373 10.6141 15.7373Z" fill="url(#paint30_linear_475_9003)"/>
<path d="M18.4375 15.4152C18.3217 15.2994 18.2899 15.1226 18.3505 14.9705C20.7404 8.96644 15.9373 3.7998 10.6016 3.7998C6.10156 3.7998 2.47656 7.4498 2.47656 11.9498C2.47656 16.4498 6.10156 20.0998 10.6016 20.0998C11.7477 20.0998 12.5685 20.0938 13.5064 19.6978C13.6629 19.6317 13.8455 19.6601 13.9664 19.7795L15.5701 21.364C15.7263 21.5183 15.9776 21.5179 16.1333 21.3631L19.9863 17.5313C20.1432 17.3752 20.1436 17.1213 19.9871 16.9648L18.4375 15.4152ZM10.6141 15.7373C8.52656 15.7373 6.82656 14.0373 6.82656 11.9498C6.82656 9.8623 8.52656 8.1623 10.6141 8.1623C12.7016 8.1623 14.4016 9.8623 14.4016 11.9498C14.4016 14.0498 12.7016 15.7373 10.6141 15.7373Z" fill="url(#paint31_linear_475_9003)"/>
<path d="M18.4375 15.4152C18.3217 15.2994 18.2899 15.1226 18.3505 14.9705C20.7404 8.96644 15.9373 3.7998 10.6016 3.7998C6.10156 3.7998 2.47656 7.4498 2.47656 11.9498C2.47656 16.4498 6.10156 20.0998 10.6016 20.0998C11.7477 20.0998 12.5685 20.0938 13.5064 19.6978C13.6629 19.6317 13.8455 19.6601 13.9664 19.7795L15.5701 21.364C15.7263 21.5183 15.9776 21.5179 16.1333 21.3631L19.9863 17.5313C20.1432 17.3752 20.1436 17.1213 19.9871 16.9648L18.4375 15.4152ZM10.6141 15.7373C8.52656 15.7373 6.82656 14.0373 6.82656 11.9498C6.82656 9.8623 8.52656 8.1623 10.6141 8.1623C12.7016 8.1623 14.4016 9.8623 14.4016 11.9498C14.4016 14.0498 12.7016 15.7373 10.6141 15.7373Z" fill="url(#paint32_linear_475_9003)"/>
<path d="M18.4375 15.4152C18.3217 15.2994 18.2899 15.1226 18.3505 14.9705C20.7404 8.96644 15.9373 3.7998 10.6016 3.7998C6.10156 3.7998 2.47656 7.4498 2.47656 11.9498C2.47656 16.4498 6.10156 20.0998 10.6016 20.0998C11.7477 20.0998 12.5685 20.0938 13.5064 19.6978C13.6629 19.6317 13.8455 19.6601 13.9664 19.7795L15.5701 21.364C15.7263 21.5183 15.9776 21.5179 16.1333 21.3631L19.9863 17.5313C20.1432 17.3752 20.1436 17.1213 19.9871 16.9648L18.4375 15.4152ZM10.6141 15.7373C8.52656 15.7373 6.82656 14.0373 6.82656 11.9498C6.82656 9.8623 8.52656 8.1623 10.6141 8.1623C12.7016 8.1623 14.4016 9.8623 14.4016 11.9498C14.4016 14.0498 12.7016 15.7373 10.6141 15.7373Z" fill="url(#paint33_linear_475_9003)"/>
<path d="M18.4375 15.4152C18.3217 15.2994 18.2899 15.1226 18.3505 14.9705C20.7404 8.96644 15.9373 3.7998 10.6016 3.7998C6.10156 3.7998 2.47656 7.4498 2.47656 11.9498C2.47656 16.4498 6.10156 20.0998 10.6016 20.0998C11.7477 20.0998 12.5685 20.0938 13.5064 19.6978C13.6629 19.6317 13.8455 19.6601 13.9664 19.7795L15.5701 21.364C15.7263 21.5183 15.9776 21.5179 16.1333 21.3631L19.9863 17.5313C20.1432 17.3752 20.1436 17.1213 19.9871 16.9648L18.4375 15.4152ZM10.6141 15.7373C8.52656 15.7373 6.82656 14.0373 6.82656 11.9498C6.82656 9.8623 8.52656 8.1623 10.6141 8.1623C12.7016 8.1623 14.4016 9.8623 14.4016 11.9498C14.4016 14.0498 12.7016 15.7373 10.6141 15.7373Z" fill="url(#paint34_radial_475_9003)"/>
<path d="M18.4375 15.4152C18.3217 15.2994 18.2899 15.1226 18.3505 14.9705C20.7404 8.96644 15.9373 3.7998 10.6016 3.7998C6.10156 3.7998 2.47656 7.4498 2.47656 11.9498C2.47656 16.4498 6.10156 20.0998 10.6016 20.0998C11.7477 20.0998 12.5685 20.0938 13.5064 19.6978C13.6629 19.6317 13.8455 19.6601 13.9664 19.7795L15.5701 21.364C15.7263 21.5183 15.9776 21.5179 16.1333 21.3631L19.9863 17.5313C20.1432 17.3752 20.1436 17.1213 19.9871 16.9648L18.4375 15.4152ZM10.6141 15.7373C8.52656 15.7373 6.82656 14.0373 6.82656 11.9498C6.82656 9.8623 8.52656 8.1623 10.6141 8.1623C12.7016 8.1623 14.4016 9.8623 14.4016 11.9498C14.4016 14.0498 12.7016 15.7373 10.6141 15.7373Z" fill="url(#paint35_radial_475_9003)"/>
<path d="M18.4375 15.4152C18.3217 15.2994 18.2899 15.1226 18.3505 14.9705C20.7404 8.96644 15.9373 3.7998 10.6016 3.7998C6.10156 3.7998 2.47656 7.4498 2.47656 11.9498C2.47656 16.4498 6.10156 20.0998 10.6016 20.0998C11.7477 20.0998 12.5685 20.0938 13.5064 19.6978C13.6629 19.6317 13.8455 19.6601 13.9664 19.7795L15.5701 21.364C15.7263 21.5183 15.9776 21.5179 16.1333 21.3631L19.9863 17.5313C20.1432 17.3752 20.1436 17.1213 19.9871 16.9648L18.4375 15.4152ZM10.6141 15.7373C8.52656 15.7373 6.82656 14.0373 6.82656 11.9498C6.82656 9.8623 8.52656 8.1623 10.6141 8.1623C12.7016 8.1623 14.4016 9.8623 14.4016 11.9498C14.4016 14.0498 12.7016 15.7373 10.6141 15.7373Z" fill="url(#paint36_radial_475_9003)"/>
<g opacity="0.53">
<ellipse cx="11.6922" cy="11.9726" rx="6.27771" ry="6.28488" transform="rotate(-4.45472 11.6922 11.9726)" stroke="url(#paint37_radial_475_9003)" stroke-width="2"/>
<ellipse cx="11.6922" cy="11.9726" rx="6.27771" ry="6.28488" transform="rotate(-4.45472 11.6922 11.9726)" stroke="url(#paint38_radial_475_9003)" stroke-width="2"/>
<ellipse cx="11.6922" cy="11.9726" rx="6.27771" ry="6.28488" transform="rotate(-4.45472 11.6922 11.9726)" stroke="url(#paint39_radial_475_9003)" stroke-width="2"/>
<ellipse cx="11.6922" cy="11.9726" rx="6.27771" ry="6.28488" transform="rotate(-4.45472 11.6922 11.9726)" stroke="url(#paint40_radial_475_9003)" stroke-width="2"/>
<ellipse cx="11.6922" cy="11.9726" rx="6.27771" ry="6.28488" transform="rotate(-4.45472 11.6922 11.9726)" stroke="url(#paint41_radial_475_9003)" stroke-width="2"/>
<ellipse cx="11.6922" cy="11.9726" rx="6.27771" ry="6.28488" transform="rotate(-4.45472 11.6922 11.9726)" stroke="url(#paint42_radial_475_9003)" stroke-width="2"/>
<ellipse cx="11.6922" cy="11.9726" rx="6.27771" ry="6.28488" transform="rotate(-4.45472 11.6922 11.9726)" stroke="url(#paint43_radial_475_9003)" stroke-width="2"/>
<ellipse cx="11.6922" cy="11.9726" rx="6.27771" ry="6.28488" transform="rotate(-4.45472 11.6922 11.9726)" stroke="url(#paint44_radial_475_9003)" stroke-width="2"/>
<ellipse cx="11.6922" cy="11.9726" rx="6.27771" ry="6.28488" transform="rotate(-4.45472 11.6922 11.9726)" stroke="url(#paint45_radial_475_9003)" stroke-width="2"/>
<ellipse cx="11.6922" cy="11.9726" rx="6.27771" ry="6.28488" transform="rotate(-4.45472 11.6922 11.9726)" stroke="url(#paint46_radial_475_9003)" stroke-width="2"/>
<ellipse cx="11.6922" cy="11.9726" rx="6.27771" ry="6.28488" transform="rotate(-4.45472 11.6922 11.9726)" stroke="url(#paint47_radial_475_9003)" stroke-width="2"/>
</g>
<g opacity="0.53">
<ellipse cx="29.9057" cy="11.5426" rx="5.77128" ry="5.77787" transform="rotate(-4.45472 29.9057 11.5426)" stroke="url(#paint48_radial_475_9003)" stroke-width="2"/>
<ellipse cx="29.9057" cy="11.5426" rx="5.77128" ry="5.77787" transform="rotate(-4.45472 29.9057 11.5426)" stroke="url(#paint49_radial_475_9003)" stroke-width="2"/>
<ellipse cx="29.9057" cy="11.5426" rx="5.77128" ry="5.77787" transform="rotate(-4.45472 29.9057 11.5426)" stroke="url(#paint50_radial_475_9003)" stroke-width="2"/>
<ellipse cx="29.9057" cy="11.5426" rx="5.77128" ry="5.77787" transform="rotate(-4.45472 29.9057 11.5426)" stroke="url(#paint51_radial_475_9003)" stroke-width="2"/>
<ellipse cx="29.9057" cy="11.5426" rx="5.77128" ry="5.77787" transform="rotate(-4.45472 29.9057 11.5426)" stroke="url(#paint52_radial_475_9003)" stroke-width="2"/>
<ellipse cx="29.9057" cy="11.5426" rx="5.77128" ry="5.77787" transform="rotate(-4.45472 29.9057 11.5426)" stroke="url(#paint53_radial_475_9003)" stroke-width="2"/>
<ellipse cx="29.9057" cy="11.5426" rx="5.77128" ry="5.77787" transform="rotate(-4.45472 29.9057 11.5426)" stroke="url(#paint54_radial_475_9003)" stroke-width="2"/>
<ellipse cx="29.9057" cy="11.5426" rx="5.77128" ry="5.77787" transform="rotate(-4.45472 29.9057 11.5426)" stroke="url(#paint55_radial_475_9003)" stroke-width="2"/>
<ellipse cx="29.9057" cy="11.5426" rx="5.77128" ry="5.77787" transform="rotate(-4.45472 29.9057 11.5426)" stroke="url(#paint56_radial_475_9003)" stroke-width="2"/>
<ellipse cx="29.9057" cy="11.5426" rx="5.77128" ry="5.77787" transform="rotate(-4.45472 29.9057 11.5426)" stroke="url(#paint57_radial_475_9003)" stroke-width="2"/>
<ellipse cx="29.9057" cy="11.5426" rx="5.77128" ry="5.77787" transform="rotate(-4.45472 29.9057 11.5426)" stroke="url(#paint58_radial_475_9003)" stroke-width="2"/>
</g>
<path d="M14.0235 19.4295C14.6459 19.0205 17.128 16.7794 18.2259 15.4123" stroke="url(#paint59_radial_475_9003)" stroke-width="2"/>
<path d="M26.3377 19.3644C25.9213 18.9249 23.3309 16.4901 22.3133 15.0623" stroke="url(#paint60_radial_475_9003)" stroke-width="2"/>
<defs>
<linearGradient id="paint0_linear_475_9003" x1="11.3032" y1="26.2611" x2="15.4048" y2="30.1674" gradientUnits="userSpaceOnUse">
<stop stop-color="#877697"/>
<stop offset="1" stop-color="#BDA7D4"/>
</linearGradient>
<linearGradient id="paint1_linear_475_9003" x1="19.1352" y1="23.8588" x2="18.393" y2="24.5424" gradientUnits="userSpaceOnUse">
<stop offset="0.606588" stop-color="#7C549C"/>
<stop offset="1" stop-color="#7C549C" stop-opacity="0"/>
</linearGradient>
<linearGradient id="paint2_linear_475_9003" x1="13.8302" y1="31.4135" x2="13.6809" y2="31.2642" gradientUnits="userSpaceOnUse">
<stop stop-color="#A185BB"/>
<stop offset="1" stop-color="#A185BB" stop-opacity="0"/>
</linearGradient>
<linearGradient id="paint3_linear_475_9003" x1="7.71661" y1="36.9436" x2="7.84357" y2="36.758" gradientUnits="userSpaceOnUse">
<stop stop-color="#A185BB"/>
<stop offset="1" stop-color="#A185BB" stop-opacity="0"/>
</linearGradient>
<linearGradient id="paint4_linear_475_9003" x1="37.4773" y1="12.7213" x2="24.1315" y2="12.7213" gradientUnits="userSpaceOnUse">
<stop stop-color="#FF7415"/>
<stop offset="1" stop-color="#F63178"/>
</linearGradient>
<linearGradient id="paint5_linear_475_9003" x1="21.7516" y1="20.8168" x2="23.6711" y2="18.8973" gradientUnits="userSpaceOnUse">
<stop stop-color="#B03657"/>
<stop offset="1" stop-color="#B03657" stop-opacity="0"/>
</linearGradient>
<linearGradient id="paint6_linear_475_9003" x1="21.4143" y1="7.57257" x2="23.2695" y2="8.09952" gradientUnits="userSpaceOnUse">
<stop stop-color="#B03657"/>
<stop offset="1" stop-color="#B03657" stop-opacity="0"/>
</linearGradient>
<linearGradient id="paint7_linear_475_9003" x1="23.5384" y1="4.73799" x2="25.4704" y2="6.62889" gradientUnits="userSpaceOnUse">
<stop stop-color="#B03657"/>
<stop offset="1" stop-color="#B03657" stop-opacity="0"/>
</linearGradient>
<linearGradient id="paint8_linear_475_9003" x1="28.68" y1="2.80599" x2="29.2111" y2="5.10795" gradientUnits="userSpaceOnUse">
<stop stop-color="#B03657"/>
<stop offset="1" stop-color="#B03657" stop-opacity="0"/>
</linearGradient>
<linearGradient id="paint9_linear_475_9003" x1="33.67" y1="3.7998" x2="32.6001" y2="6.12187" gradientUnits="userSpaceOnUse">
<stop stop-color="#B03657"/>
<stop offset="1" stop-color="#B03657" stop-opacity="0"/>
</linearGradient>
<linearGradient id="paint10_linear_475_9003" x1="33.2519" y1="19.9254" x2="32.6715" y2="18.3384" gradientUnits="userSpaceOnUse">
<stop stop-color="#B03657"/>
<stop offset="1" stop-color="#B03657" stop-opacity="0"/>
</linearGradient>
<radialGradient id="paint11_radial_475_9003" cx="0" cy="0" r="1" gradientUnits="userSpaceOnUse" gradientTransform="translate(36.667 17.062) rotate(144.428) scale(4.81862 1.09593)">
<stop stop-color="#B03657"/>
<stop offset="1" stop-color="#B03657" stop-opacity="0"/>
</radialGradient>
<radialGradient id="paint12_radial_475_9003" cx="0" cy="0" r="1" gradientUnits="userSpaceOnUse" gradientTransform="translate(29.114 20.3754) rotate(-163.093) scale(3.60701 0.820367)">
<stop stop-color="#B03657"/>
<stop offset="1" stop-color="#B03657" stop-opacity="0"/>
</radialGradient>
<radialGradient id="paint13_radial_475_9003" cx="0" cy="0" r="1" gradientUnits="userSpaceOnUse" gradientTransform="translate(20.8605 16.3302) rotate(46.5296) scale(1.12137 1.7295)">
<stop stop-color="#B03657"/>
<stop offset="1" stop-color="#B03657" stop-opacity="0"/>
</radialGradient>
<radialGradient id="paint14_radial_475_9003" cx="0" cy="0" r="1" gradientUnits="userSpaceOnUse" gradientTransform="translate(20.4235 13.2704) rotate(56.4373) scale(2.67477 1.60621)">
<stop stop-color="#B03657"/>
<stop offset="1" stop-color="#B03657" stop-opacity="0"/>
</radialGradient>
<radialGradient id="paint15_radial_475_9003" cx="0" cy="0" r="1" gradientUnits="userSpaceOnUse" gradientTransform="translate(30.3726 10.8852) rotate(70.5546) scale(3.31518)">
<stop offset="0.390625" stop-color="#B03657"/>
<stop offset="1" stop-color="#B03657" stop-opacity="0"/>
</radialGradient>
<radialGradient id="paint16_radial_475_9003" cx="0" cy="0" r="1" gradientUnits="userSpaceOnUse" gradientTransform="translate(31.8799 11.8524) rotate(100.59) scale(2.19622)">
<stop offset="0.0260417" stop-color="#B03657"/>
<stop offset="1" stop-color="#B03657" stop-opacity="0"/>
</radialGradient>
<radialGradient id="paint17_radial_475_9003" cx="0" cy="0" r="1" gradientUnits="userSpaceOnUse" gradientTransform="translate(31.1761 13.0008) rotate(164.142) scale(2.5948)">
<stop offset="0.0260417" stop-color="#B03657"/>
<stop offset="1" stop-color="#B03657" stop-opacity="0"/>
</radialGradient>
<linearGradient id="paint18_linear_475_9003" x1="23.1104" y1="27.9794" x2="26.655" y2="24.095" gradientUnits="userSpaceOnUse">
<stop stop-color="#B59FCA"/>
<stop offset="1" stop-color="#887799"/>
</linearGradient>
<linearGradient id="paint19_linear_475_9003" x1="23.2311" y1="28.7447" x2="23.5335" y2="28.4423" gradientUnits="userSpaceOnUse">
<stop offset="0.776042" stop-color="#A486BF"/>
<stop offset="1" stop-color="#A486BF" stop-opacity="0"/>
</linearGradient>
<linearGradient id="paint20_linear_475_9003" x1="27.404" y1="24.2289" x2="26.9074" y2="24.7255" gradientUnits="userSpaceOnUse">
<stop offset="0.630208" stop-color="#A097A8"/>
<stop offset="1" stop-color="#A097A8" stop-opacity="0"/>
</linearGradient>
<radialGradient id="paint21_radial_475_9003" cx="0" cy="0" r="1" gradientUnits="userSpaceOnUse" gradientTransform="translate(19.8501 21.4947) rotate(90) scale(1.49467)">
<stop offset="0.640625" stop-color="#8C6BA8"/>
<stop offset="1" stop-color="#8C6BA8" stop-opacity="0"/>
</radialGradient>
<radialGradient id="paint22_radial_475_9003" cx="0" cy="0" r="1" gradientUnits="userSpaceOnUse" gradientTransform="translate(20.0539 21.1828) rotate(134.569) scale(1.83687 1.68547)">
<stop offset="0.517871" stop-color="#988098" stop-opacity="0"/>
<stop offset="0.860007" stop-color="#988098"/>
</radialGradient>
<radialGradient id="paint23_radial_475_9003" cx="0" cy="0" r="1" gradientUnits="userSpaceOnUse" gradientTransform="translate(19.3312 22.882) rotate(-68.142) scale(1.66417 1.48441)">
<stop stop-color="#926BB4"/>
<stop offset="1" stop-color="#926BB4" stop-opacity="0"/>
</radialGradient>
<radialGradient id="paint24_radial_475_9003" cx="0" cy="0" r="1" gradientUnits="userSpaceOnUse" gradientTransform="translate(20.4445 21.1438) rotate(139.617) scale(0.64813)">
<stop offset="0.258961" stop-color="#B9AEC4"/>
<stop offset="1" stop-color="#B9AEC4" stop-opacity="0"/>
</radialGradient>
<radialGradient id="paint25_radial_475_9003" cx="0" cy="0" r="1" gradientUnits="userSpaceOnUse" gradientTransform="translate(19.8195 22.1789) rotate(-65.8586) scale(2.38774)">
<stop offset="0.699835" stop-color="#A49EA6" stop-opacity="0"/>
<stop offset="1" stop-color="#A49EA6"/>
</radialGradient>
<linearGradient id="paint26_linear_475_9003" x1="20.2708" y1="12.7213" x2="6.77344" y2="12.7213" gradientUnits="userSpaceOnUse">
<stop stop-color="#FF7415"/>
<stop offset="1" stop-color="#F63178"/>
</linearGradient>
<linearGradient id="paint27_linear_475_9003" x1="6.05469" y1="20.7314" x2="7.71058" y2="18.1365" gradientUnits="userSpaceOnUse">
<stop offset="0.078125" stop-color="#B03657"/>
<stop offset="1" stop-color="#B03657" stop-opacity="0"/>
</linearGradient>
<linearGradient id="paint28_linear_475_9003" x1="0.863998" y1="13.9765" x2="3.89729" y2="13.0232" gradientUnits="userSpaceOnUse">
<stop offset="0.270833" stop-color="#B03657"/>
<stop offset="1" stop-color="#B03657" stop-opacity="0"/>
</linearGradient>
<linearGradient id="paint29_linear_475_9003" x1="2.47656" y1="8.68991" x2="3.6373" y2="8.90657" gradientUnits="userSpaceOnUse">
<stop offset="0.244792" stop-color="#B03657"/>
<stop offset="1" stop-color="#B03657" stop-opacity="0"/>
</linearGradient>
<linearGradient id="paint30_linear_475_9003" x1="1.22219" y1="14.8671" x2="3.19895" y2="13.7337" gradientUnits="userSpaceOnUse">
<stop offset="0.244792" stop-color="#B03657"/>
<stop offset="1" stop-color="#B03657" stop-opacity="0"/>
</linearGradient>
<linearGradient id="paint31_linear_475_9003" x1="10.8148" y1="22.0123" x2="11.3737" y2="19.2066" gradientUnits="userSpaceOnUse">
<stop offset="0.270833" stop-color="#B03657"/>
<stop offset="1" stop-color="#B03657" stop-opacity="0"/>
</linearGradient>
<linearGradient id="paint32_linear_475_9003" x1="3.71411" y1="3.9996" x2="6.21201" y2="5.98206" gradientUnits="userSpaceOnUse">
<stop offset="0.270833" stop-color="#B03657"/>
<stop offset="1" stop-color="#B03657" stop-opacity="0"/>
</linearGradient>
<linearGradient id="paint33_linear_475_9003" x1="8.23412" y1="3.04801" x2="8.63062" y2="4.83223" gradientUnits="userSpaceOnUse">
<stop offset="0.270833" stop-color="#B03657"/>
<stop offset="1" stop-color="#B03657" stop-opacity="0"/>
</linearGradient>
<radialGradient id="paint34_radial_475_9003" cx="0" cy="0" r="1" gradientUnits="userSpaceOnUse" gradientTransform="translate(11.3737 11.6022) rotate(96.4316) scale(3.88934 3.67268)">
<stop offset="0.661458" stop-color="#B03657"/>
<stop offset="1" stop-color="#B03657" stop-opacity="0"/>
</radialGradient>
<radialGradient id="paint35_radial_475_9003" cx="0" cy="0" r="1" gradientUnits="userSpaceOnUse" gradientTransform="translate(11.2345 12.7213) rotate(-168.505) scale(3.3364 3.15054)">
<stop offset="0.661458" stop-color="#B03657"/>
<stop offset="1" stop-color="#B03657" stop-opacity="0"/>
</radialGradient>
<radialGradient id="paint36_radial_475_9003" cx="0" cy="0" r="1" gradientUnits="userSpaceOnUse" gradientTransform="translate(13.9107 21.964) rotate(-66.9296) scale(2.8393 2.83154)">
<stop stop-color="#B03657"/>
<stop offset="1" stop-color="#B03657" stop-opacity="0"/>
</radialGradient>
<radialGradient id="paint37_radial_475_9003" cx="0" cy="0" r="1" gradientUnits="userSpaceOnUse" gradientTransform="translate(15.3542 7.27405) rotate(34.6966) scale(2.28265 0.891354)">
<stop stop-color="#FF8C72"/>
<stop offset="0.895477" stop-color="#FF8C72" stop-opacity="0"/>
</radialGradient>
<radialGradient id="paint38_radial_475_9003" cx="0" cy="0" r="1" gradientUnits="userSpaceOnUse" gradientTransform="translate(13.4795 6.24065) rotate(23.7283) scale(2.09486 0.818328)">
<stop stop-color="#FF8C72"/>
<stop offset="0.895477" stop-color="#FF8C72" stop-opacity="0"/>
</radialGradient>
<radialGradient id="paint39_radial_475_9003" cx="0" cy="0" r="1" gradientUnits="userSpaceOnUse" gradientTransform="translate(16.4741 8.57558) rotate(58.8439) scale(2.5962 0.791323)">
<stop stop-color="#FF8C72"/>
<stop offset="0.895477" stop-color="#FF8C72" stop-opacity="0"/>
</radialGradient>
<radialGradient id="paint40_radial_475_9003" cx="0" cy="0" r="1" gradientUnits="userSpaceOnUse" gradientTransform="translate(17.0458 10.4575) rotate(81.095) scale(1.98042 0.603296)">
<stop stop-color="#FF8C72"/>
<stop offset="0.895477" stop-color="#FF8C72" stop-opacity="0"/>
</radialGradient>
<radialGradient id="paint41_radial_475_9003" cx="0" cy="0" r="1" gradientUnits="userSpaceOnUse" gradientTransform="translate(17.1726 12.4001) rotate(97.5674) scale(1.65663 0.504652)">
<stop stop-color="#FF8C72"/>
<stop offset="0.895477" stop-color="#FF8C72" stop-opacity="0"/>
</radialGradient>
<radialGradient id="paint42_radial_475_9003" cx="0" cy="0" r="1" gradientUnits="userSpaceOnUse" gradientTransform="translate(16.6479 14.3049) rotate(110.305) scale(1.59398 0.485681)">
<stop stop-color="#FF8C72"/>
<stop offset="0.895477" stop-color="#FF8C72" stop-opacity="0"/>
</radialGradient>
<radialGradient id="paint43_radial_475_9003" cx="0" cy="0" r="1" gradientUnits="userSpaceOnUse" gradientTransform="translate(5.44391 13.9653) rotate(-105.509) scale(2.63005 0.726089)">
<stop stop-color="#FF638F"/>
<stop offset="1" stop-color="#FF638F" stop-opacity="0"/>
</radialGradient>
<radialGradient id="paint44_radial_475_9003" cx="0" cy="0" r="1" gradientUnits="userSpaceOnUse" gradientTransform="translate(5.3343 12.1746) rotate(-84.0245) scale(2.15974 0.596249)">
<stop stop-color="#FF638F"/>
<stop offset="1" stop-color="#FF638F" stop-opacity="0"/>
</radialGradient>
<radialGradient id="paint45_radial_475_9003" cx="0" cy="0" r="1" gradientUnits="userSpaceOnUse" gradientTransform="translate(6.39542 15.6137) rotate(-121.083) scale(1.81322 0.500584)">
<stop stop-color="#FF638F"/>
<stop offset="1" stop-color="#FF638F" stop-opacity="0"/>
</radialGradient>
<radialGradient id="paint46_radial_475_9003" cx="0" cy="0" r="1" gradientUnits="userSpaceOnUse" gradientTransform="translate(7.74042 16.8525) rotate(-139.946) scale(2.07385 0.572536)">
<stop stop-color="#FF638F"/>
<stop offset="1" stop-color="#FF638F" stop-opacity="0"/>
</radialGradient>
<radialGradient id="paint47_radial_475_9003" cx="0" cy="0" r="1" gradientUnits="userSpaceOnUse" gradientTransform="translate(9.16698 17.7214) rotate(-160.35) scale(1.43426 0.395962)">
<stop stop-color="#FF638F"/>
<stop offset="1" stop-color="#FF638F" stop-opacity="0"/>
</radialGradient>
<radialGradient id="paint48_radial_475_9003" cx="0" cy="0" r="1" gradientUnits="userSpaceOnUse" gradientTransform="translate(33.2723 7.22308) rotate(34.6966) scale(2.09851 0.819448)">
<stop stop-color="#FF8C72"/>
<stop offset="0.895477" stop-color="#FF8C72" stop-opacity="0"/>
</radialGradient>
<radialGradient id="paint49_radial_475_9003" cx="0" cy="0" r="1" gradientUnits="userSpaceOnUse" gradientTransform="translate(31.5488 6.27305) rotate(23.7283) scale(1.92587 0.752313)">
<stop stop-color="#FF8C72"/>
<stop offset="0.895477" stop-color="#FF8C72" stop-opacity="0"/>
</radialGradient>
<radialGradient id="paint50_radial_475_9003" cx="0" cy="0" r="1" gradientUnits="userSpaceOnUse" gradientTransform="translate(34.3019 8.41962) rotate(58.8439) scale(2.38676 0.727487)">
<stop stop-color="#FF8C72"/>
<stop offset="0.895477" stop-color="#FF8C72" stop-opacity="0"/>
</radialGradient>
<radialGradient id="paint51_radial_475_9003" cx="0" cy="0" r="1" gradientUnits="userSpaceOnUse" gradientTransform="translate(34.8274 10.1498) rotate(81.095) scale(1.82065 0.554628)">
<stop stop-color="#FF8C72"/>
<stop offset="0.895477" stop-color="#FF8C72" stop-opacity="0"/>
</radialGradient>
<radialGradient id="paint52_radial_475_9003" cx="0" cy="0" r="1" gradientUnits="userSpaceOnUse" gradientTransform="translate(34.9441 11.9356) rotate(97.5674) scale(1.52299 0.463942)">
<stop stop-color="#FF8C72"/>
<stop offset="0.895477" stop-color="#FF8C72" stop-opacity="0"/>
</radialGradient>
<radialGradient id="paint53_radial_475_9003" cx="0" cy="0" r="1" gradientUnits="userSpaceOnUse" gradientTransform="translate(34.4616 13.6867) rotate(110.305) scale(1.46539 0.446501)">
<stop stop-color="#FF8C72"/>
<stop offset="0.895477" stop-color="#FF8C72" stop-opacity="0"/>
</radialGradient>
<radialGradient id="paint54_radial_475_9003" cx="0" cy="0" r="1" gradientUnits="userSpaceOnUse" gradientTransform="translate(24.1615 13.3746) rotate(-105.509) scale(2.41788 0.667515)">
<stop stop-color="#FF638F"/>
<stop offset="1" stop-color="#FF638F" stop-opacity="0"/>
</radialGradient>
<radialGradient id="paint55_radial_475_9003" cx="0" cy="0" r="1" gradientUnits="userSpaceOnUse" gradientTransform="translate(24.0607 11.7283) rotate(-84.0245) scale(1.98551 0.54815)">
<stop stop-color="#FF638F"/>
<stop offset="1" stop-color="#FF638F" stop-opacity="0"/>
</radialGradient>
<radialGradient id="paint56_radial_475_9003" cx="0" cy="0" r="1" gradientUnits="userSpaceOnUse" gradientTransform="translate(25.0363 14.89) rotate(-121.083) scale(1.66695 0.460202)">
<stop stop-color="#FF638F"/>
<stop offset="1" stop-color="#FF638F" stop-opacity="0"/>
</radialGradient>
<radialGradient id="paint57_radial_475_9003" cx="0" cy="0" r="1" gradientUnits="userSpaceOnUse" gradientTransform="translate(26.2728 16.0288) rotate(-139.946) scale(1.90655 0.526349)">
<stop stop-color="#FF638F"/>
<stop offset="1" stop-color="#FF638F" stop-opacity="0"/>
</radialGradient>
<radialGradient id="paint58_radial_475_9003" cx="0" cy="0" r="1" gradientUnits="userSpaceOnUse" gradientTransform="translate(27.5842 16.8276) rotate(-160.35) scale(1.31856 0.36402)">
<stop stop-color="#FF638F"/>
<stop offset="1" stop-color="#FF638F" stop-opacity="0"/>
</radialGradient>
<radialGradient id="paint59_radial_475_9003" cx="0" cy="0" r="1" gradientUnits="userSpaceOnUse" gradientTransform="translate(17.2151 16.4371) rotate(133.551) scale(4.33276 1.44598)">
<stop offset="0.447917" stop-color="#FF683C"/>
<stop offset="1" stop-color="#FF683C" stop-opacity="0"/>
</radialGradient>
<radialGradient id="paint60_radial_475_9003" cx="0" cy="0" r="1" gradientUnits="userSpaceOnUse" gradientTransform="translate(24.3255 17.7453) rotate(141.342) scale(0.888636 3.38336)">
<stop stop-color="#DB236E"/>
<stop offset="1" stop-color="#DB236E" stop-opacity="0"/>
</radialGradient>
</defs>
</svg>
