<svg width="440" height="433" viewBox="0 0 440 433" fill="none" xmlns="http://www.w3.org/2000/svg">
<path d="M178.347 22.726C198.127 -7.06153 241.873 -7.06154 261.653 22.726L303.529 85.7886C309.948 95.4545 319.528 102.587 330.629 105.964L403.989 128.283C437.114 138.361 450.216 178.244 429.522 206.003L381.576 270.316C374.866 279.316 371.381 290.312 371.68 301.533L373.8 381.109C374.741 416.424 339.756 441.551 306.591 429.38L237.227 403.922C226.105 399.841 213.895 399.841 202.773 403.922L133.409 429.38C100.244 441.551 65.2587 416.424 66.1998 381.109L68.3204 301.533C68.6194 290.312 65.1337 279.316 58.4244 270.316L10.4783 206.003C-10.2164 178.244 2.88606 138.361 36.0113 128.283L109.371 105.964C120.472 102.587 130.052 95.4545 136.471 85.7885L178.347 22.726Z" fill="#FFF9E9"/>
</svg>
