<svg width="530" height="547" viewBox="0 0 530 547" fill="none" xmlns="http://www.w3.org/2000/svg">
<path d="M223.347 62.726C243.127 32.9385 286.873 32.9385 306.653 62.726L348.529 125.789C354.948 135.454 364.528 142.587 375.629 145.964L448.989 168.283C482.114 178.361 495.216 218.244 474.522 246.003L426.576 310.316C419.866 319.316 416.381 330.312 416.68 341.533L418.8 421.109C419.741 456.424 384.756 481.551 351.591 469.38L282.227 443.922C271.105 439.841 258.895 439.841 247.773 443.922L178.409 469.38C145.244 481.551 110.259 456.424 111.2 421.109L113.32 341.533C113.619 330.312 110.134 319.316 103.424 310.316L55.4783 246.003C34.7836 218.244 47.8861 178.361 81.0113 168.283L154.371 145.964C165.472 142.587 175.052 135.454 181.471 125.789L223.347 62.726Z" fill="#FFE7D8"/>
</svg>
