<svg width="40" height="40" viewBox="0 0 40 40" fill="none" xmlns="http://www.w3.org/2000/svg">
<path d="M26.3281 14.5391C26.3281 14.1248 26.6639 13.7891 27.0781 13.7891H32.9512C33.3654 13.7891 33.7012 14.1248 33.7012 14.5391V15.8984H26.3281V14.5391Z" fill="url(#paint0_linear_475_8998)"/>
<path d="M26.3281 14.5391C26.3281 14.1248 26.6639 13.7891 27.0781 13.7891H32.9512C33.3654 13.7891 33.7012 14.1248 33.7012 14.5391V15.8984H26.3281V14.5391Z" fill="url(#paint1_radial_475_8998)"/>
<path d="M6.34766 14.4766C6.34766 14.0969 6.65546 13.7891 7.03516 13.7891H10.6211C11.0008 13.7891 11.3086 14.0969 11.3086 14.4766V15.8984H6.34766V14.4766Z" fill="url(#paint2_linear_475_8998)"/>
<path d="M6.34766 14.4766C6.34766 14.0969 6.65546 13.7891 7.03516 13.7891H10.6211C11.0008 13.7891 11.3086 14.0969 11.3086 14.4766V15.8984H6.34766V14.4766Z" fill="url(#paint3_radial_475_8998)"/>
<path d="M2.53906 17.5293C2.53906 16.1486 3.65835 15.0293 5.03906 15.0293H34.9609C36.3416 15.0293 37.4609 16.1486 37.4609 17.5293V19.6094C37.4609 19.782 37.321 19.9219 37.1484 19.9219H2.85156C2.67897 19.9219 2.53906 19.782 2.53906 19.6094V17.5293Z" fill="#DAD4E6"/>
<path d="M2.53906 17.5293C2.53906 16.1486 3.65835 15.0293 5.03906 15.0293H34.9609C36.3416 15.0293 37.4609 16.1486 37.4609 17.5293V19.6094C37.4609 19.782 37.321 19.9219 37.1484 19.9219H2.85156C2.67897 19.9219 2.53906 19.782 2.53906 19.6094V17.5293Z" fill="url(#paint4_linear_475_8998)"/>
<path d="M2.53906 17.5293C2.53906 16.1486 3.65835 15.0293 5.03906 15.0293H34.9609C36.3416 15.0293 37.4609 16.1486 37.4609 17.5293V19.6094C37.4609 19.782 37.321 19.9219 37.1484 19.9219H2.85156C2.67897 19.9219 2.53906 19.782 2.53906 19.6094V17.5293Z" fill="url(#paint5_linear_475_8998)"/>
<path d="M2.53906 17.5293C2.53906 16.1486 3.65835 15.0293 5.03906 15.0293H34.9609C36.3416 15.0293 37.4609 16.1486 37.4609 17.5293V19.6094C37.4609 19.782 37.321 19.9219 37.1484 19.9219H2.85156C2.67897 19.9219 2.53906 19.782 2.53906 19.6094V17.5293Z" fill="url(#paint6_linear_475_8998)"/>
<path d="M2.53906 17.5293C2.53906 16.1486 3.65835 15.0293 5.03906 15.0293H34.9609C36.3416 15.0293 37.4609 16.1486 37.4609 17.5293V19.6094C37.4609 19.782 37.321 19.9219 37.1484 19.9219H2.85156C2.67897 19.9219 2.53906 19.782 2.53906 19.6094V17.5293Z" fill="url(#paint7_radial_475_8998)"/>
<path d="M2.53906 17.5293C2.53906 16.1486 3.65835 15.0293 5.03906 15.0293H34.9609C36.3416 15.0293 37.4609 16.1486 37.4609 17.5293V19.6094C37.4609 19.782 37.321 19.9219 37.1484 19.9219H2.85156C2.67897 19.9219 2.53906 19.782 2.53906 19.6094V17.5293Z" fill="url(#paint8_linear_475_8998)"/>
<path d="M2.53906 17.5293C2.53906 16.1486 3.65835 15.0293 5.03906 15.0293H34.9609C36.3416 15.0293 37.4609 16.1486 37.4609 17.5293V19.6094C37.4609 19.782 37.321 19.9219 37.1484 19.9219H2.85156C2.67897 19.9219 2.53906 19.782 2.53906 19.6094V17.5293Z" fill="url(#paint9_linear_475_8998)"/>
<path d="M2.53906 17.5293C2.53906 16.1486 3.65835 15.0293 5.03906 15.0293H34.9609C36.3416 15.0293 37.4609 16.1486 37.4609 17.5293V19.6094C37.4609 19.782 37.321 19.9219 37.1484 19.9219H2.85156C2.67897 19.9219 2.53906 19.782 2.53906 19.6094V17.5293Z" fill="url(#paint10_linear_475_8998)"/>
<path d="M2.53906 17.5293C2.53906 16.1486 3.65835 15.0293 5.03906 15.0293H34.9609C36.3416 15.0293 37.4609 16.1486 37.4609 17.5293V19.6094C37.4609 19.782 37.321 19.9219 37.1484 19.9219H2.85156C2.67897 19.9219 2.53906 19.782 2.53906 19.6094V17.5293Z" fill="url(#paint11_radial_475_8998)"/>
<path d="M2.53906 17.5293C2.53906 16.1486 3.65835 15.0293 5.03906 15.0293H34.9609C36.3416 15.0293 37.4609 16.1486 37.4609 17.5293V19.6094C37.4609 19.782 37.321 19.9219 37.1484 19.9219H2.85156C2.67897 19.9219 2.53906 19.782 2.53906 19.6094V17.5293Z" fill="url(#paint12_radial_475_8998)"/>
<path d="M2.53906 35.1765C2.53906 36.395 3.52688 37.3828 4.74542 37.3828H35.2546C36.4731 37.3828 37.4609 36.395 37.4609 35.1765C37.4609 35.1329 37.4257 35.0977 37.3821 35.0977H2.61786C2.57434 35.0977 2.53906 35.1329 2.53906 35.1765Z" fill="url(#paint13_linear_475_8998)"/>
<path d="M2.53906 35.1765C2.53906 36.395 3.52688 37.3828 4.74542 37.3828H35.2546C36.4731 37.3828 37.4609 36.395 37.4609 35.1765C37.4609 35.1329 37.4257 35.0977 37.3821 35.0977H2.61786C2.57434 35.0977 2.53906 35.1329 2.53906 35.1765Z" fill="url(#paint14_linear_475_8998)"/>
<path d="M2.53906 35.1765C2.53906 36.395 3.52688 37.3828 4.74542 37.3828H35.2546C36.4731 37.3828 37.4609 36.395 37.4609 35.1765C37.4609 35.1329 37.4257 35.0977 37.3821 35.0977H2.61786C2.57434 35.0977 2.53906 35.1329 2.53906 35.1765Z" fill="url(#paint15_linear_475_8998)"/>
<path d="M2.53906 35.1765C2.53906 36.395 3.52688 37.3828 4.74542 37.3828H35.2546C36.4731 37.3828 37.4609 36.395 37.4609 35.1765C37.4609 35.1329 37.4257 35.0977 37.3821 35.0977H2.61786C2.57434 35.0977 2.53906 35.1329 2.53906 35.1765Z" fill="url(#paint16_radial_475_8998)"/>
<path d="M2.53906 35.1765C2.53906 36.395 3.52688 37.3828 4.74542 37.3828H35.2546C36.4731 37.3828 37.4609 36.395 37.4609 35.1765C37.4609 35.1329 37.4257 35.0977 37.3821 35.0977H2.61786C2.57434 35.0977 2.53906 35.1329 2.53906 35.1765Z" fill="url(#paint17_radial_475_8998)"/>
<path d="M2.53906 20.2344C2.53906 20.0618 2.67897 19.9219 2.85156 19.9219H37.1484C37.321 19.9219 37.4609 20.0618 37.4609 20.2344V34.7852C37.4609 34.9577 37.321 35.0977 37.1484 35.0977H2.85156C2.67897 35.0977 2.53906 34.9577 2.53906 34.7852V20.2344Z" fill="url(#paint18_linear_475_8998)"/>
<path d="M2.53906 20.2344C2.53906 20.0618 2.67897 19.9219 2.85156 19.9219H37.1484C37.321 19.9219 37.4609 20.0618 37.4609 20.2344V34.7852C37.4609 34.9577 37.321 35.0977 37.1484 35.0977H2.85156C2.67897 35.0977 2.53906 34.9577 2.53906 34.7852V20.2344Z" fill="url(#paint19_linear_475_8998)"/>
<path d="M2.53906 20.2344C2.53906 20.0618 2.67897 19.9219 2.85156 19.9219H37.1484C37.321 19.9219 37.4609 20.0618 37.4609 20.2344V34.7852C37.4609 34.9577 37.321 35.0977 37.1484 35.0977H2.85156C2.67897 35.0977 2.53906 34.9577 2.53906 34.7852V20.2344Z" fill="url(#paint20_linear_475_8998)"/>
<path d="M2.53906 20.2344C2.53906 20.0618 2.67897 19.9219 2.85156 19.9219H37.1484C37.321 19.9219 37.4609 20.0618 37.4609 20.2344V34.7852C37.4609 34.9577 37.321 35.0977 37.1484 35.0977H2.85156C2.67897 35.0977 2.53906 34.9577 2.53906 34.7852V20.2344Z" fill="url(#paint21_linear_475_8998)"/>
<path d="M2.53906 20.2344C2.53906 20.0618 2.67897 19.9219 2.85156 19.9219H37.1484C37.321 19.9219 37.4609 20.0618 37.4609 20.2344V34.7852C37.4609 34.9577 37.321 35.0977 37.1484 35.0977H2.85156C2.67897 35.0977 2.53906 34.9577 2.53906 34.7852V20.2344Z" fill="url(#paint22_radial_475_8998)"/>
<path d="M2.53906 20.2344C2.53906 20.0618 2.67897 19.9219 2.85156 19.9219H37.1484C37.321 19.9219 37.4609 20.0618 37.4609 20.2344V34.7852C37.4609 34.9577 37.321 35.0977 37.1484 35.0977H2.85156C2.67897 35.0977 2.53906 34.9577 2.53906 34.7852V20.2344Z" fill="url(#paint23_linear_475_8998)"/>
<path d="M2.53906 20.2344C2.53906 20.0618 2.67897 19.9219 2.85156 19.9219H37.1484C37.321 19.9219 37.4609 20.0618 37.4609 20.2344V34.7852C37.4609 34.9577 37.321 35.0977 37.1484 35.0977H2.85156C2.67897 35.0977 2.53906 34.9577 2.53906 34.7852V20.2344Z" fill="url(#paint24_linear_475_8998)"/>
<path d="M2.53906 20.2344C2.53906 20.0618 2.67897 19.9219 2.85156 19.9219H37.1484C37.321 19.9219 37.4609 20.0618 37.4609 20.2344V34.7852C37.4609 34.9577 37.321 35.0977 37.1484 35.0977H2.85156C2.67897 35.0977 2.53906 34.9577 2.53906 34.7852V20.2344Z" fill="url(#paint25_linear_475_8998)"/>
<circle cx="20" cy="27.4707" r="8.76953" fill="url(#paint26_radial_475_8998)"/>
<circle cx="20" cy="27.4707" r="8.76953" fill="url(#paint27_radial_475_8998)"/>
<circle cx="20" cy="27.4707" r="8.76953" fill="url(#paint28_radial_475_8998)"/>
<circle cx="20" cy="27.4707" r="8.76953" fill="url(#paint29_radial_475_8998)"/>
<circle cx="20" cy="27.4707" r="8.76953" fill="url(#paint30_radial_475_8998)"/>
<circle cx="20" cy="27.4707" r="6.21094" fill="url(#paint31_radial_475_8998)"/>
<circle cx="20" cy="27.4707" r="6.21094" fill="url(#paint32_radial_475_8998)"/>
<circle cx="20" cy="27.4707" r="3.06641" fill="url(#paint33_linear_475_8998)"/>
<circle cx="20" cy="27.4707" r="3.06641" fill="url(#paint34_radial_475_8998)"/>
<circle cx="20" cy="27.4707" r="3.06641" fill="url(#paint35_radial_475_8998)"/>
<ellipse cx="22.5451" cy="24.981" rx="1.04564" ry="1.30292" transform="rotate(-34.9736 22.5451 24.981)" fill="url(#paint36_linear_475_8998)"/>
<defs>
<linearGradient id="paint0_linear_475_8998" x1="26.7578" y1="14.8437" x2="34.2969" y2="14.8437" gradientUnits="userSpaceOnUse">
<stop offset="0.196906" stop-color="#949597"/>
<stop offset="0.624473" stop-color="#C1C2C4"/>
</linearGradient>
<radialGradient id="paint1_radial_475_8998" cx="0" cy="0" r="1" gradientUnits="userSpaceOnUse" gradientTransform="translate(31.7969 14.3359) rotate(90) scale(0.273437 2.10938)">
<stop stop-color="#CFD0D2"/>
<stop offset="1" stop-color="#CFD0D2" stop-opacity="0"/>
</radialGradient>
<linearGradient id="paint2_linear_475_8998" x1="6.63677" y1="14.8437" x2="11.7094" y2="14.8437" gradientUnits="userSpaceOnUse">
<stop offset="0.196906" stop-color="#949597"/>
<stop offset="0.624473" stop-color="#C1C2C4"/>
</linearGradient>
<radialGradient id="paint3_radial_475_8998" cx="0" cy="0" r="1" gradientUnits="userSpaceOnUse" gradientTransform="translate(10.0273 14.3359) rotate(90) scale(0.273437 1.41929)">
<stop stop-color="#CFD0D2"/>
<stop offset="1" stop-color="#CFD0D2" stop-opacity="0"/>
</radialGradient>
<linearGradient id="paint4_linear_475_8998" x1="20" y1="15.0293" x2="20" y2="17.0703" gradientUnits="userSpaceOnUse">
<stop stop-color="#D8D8DC"/>
<stop offset="1" stop-color="#D8D8DC" stop-opacity="0"/>
</linearGradient>
<linearGradient id="paint5_linear_475_8998" x1="2.53906" y1="19.1797" x2="4.49219" y2="19.1797" gradientUnits="userSpaceOnUse">
<stop offset="0.22" stop-color="#C6C3CC"/>
<stop offset="1" stop-color="#C6C3CC" stop-opacity="0"/>
</linearGradient>
<linearGradient id="paint6_linear_475_8998" x1="37.4609" y1="19.4922" x2="34.2578" y2="19.4922" gradientUnits="userSpaceOnUse">
<stop offset="0.15" stop-color="#F9F7FE"/>
<stop offset="1" stop-color="#D3CDDD" stop-opacity="0"/>
</linearGradient>
<radialGradient id="paint7_radial_475_8998" cx="0" cy="0" r="1" gradientUnits="userSpaceOnUse" gradientTransform="translate(37.4609 15.9766) rotate(135.463) scale(2.13727 2.59498)">
<stop offset="0.15" stop-color="#F9F7FE"/>
<stop offset="1" stop-color="#F9F7FE" stop-opacity="0"/>
</radialGradient>
<linearGradient id="paint8_linear_475_8998" x1="22.0312" y1="19.9219" x2="22.0312" y2="19.4922" gradientUnits="userSpaceOnUse">
<stop stop-color="#B6ADC6"/>
<stop offset="1" stop-color="#B6ADC6" stop-opacity="0"/>
</linearGradient>
<linearGradient id="paint9_linear_475_8998" x1="20" y1="15.0293" x2="20" y2="15.392" gradientUnits="userSpaceOnUse">
<stop stop-color="#CBCCCD"/>
<stop offset="0.646187" stop-color="#CBCCCD" stop-opacity="0.27304"/>
<stop offset="1" stop-color="#CBCCCD" stop-opacity="0"/>
</linearGradient>
<linearGradient id="paint10_linear_475_8998" x1="37.7048" y1="18.1249" x2="37.0328" y2="18.1249" gradientUnits="userSpaceOnUse">
<stop stop-color="#CBCCCD"/>
<stop offset="0.791559" stop-color="#CBCCCD" stop-opacity="0.143048"/>
<stop offset="1" stop-color="#CBCCCD" stop-opacity="0"/>
</linearGradient>
<radialGradient id="paint11_radial_475_8998" cx="0" cy="0" r="1" gradientUnits="userSpaceOnUse" gradientTransform="translate(37.3934 15.757) rotate(144.225) scale(1.32383 9.44911)">
<stop offset="0.162017" stop-color="#CBCCCD"/>
<stop offset="0.713456" stop-color="#CBCCCD" stop-opacity="0.143048"/>
<stop offset="1" stop-color="#CBCCCD" stop-opacity="0"/>
</radialGradient>
<radialGradient id="paint12_radial_475_8998" cx="0" cy="0" r="1" gradientUnits="userSpaceOnUse" gradientTransform="translate(36.8037 15.1113) rotate(123.453) scale(1.12099 8.00135)">
<stop offset="0.394783" stop-color="#CBCCCD"/>
<stop offset="0.742064" stop-color="#CBCCCD" stop-opacity="0.143048"/>
<stop offset="1" stop-color="#CBCCCD" stop-opacity="0"/>
</radialGradient>
<linearGradient id="paint13_linear_475_8998" x1="20" y1="35.0977" x2="20" y2="37.3828" gradientUnits="userSpaceOnUse">
<stop stop-color="#CFC6DE"/>
<stop offset="1" stop-color="#C3B4D7"/>
</linearGradient>
<linearGradient id="paint14_linear_475_8998" x1="21.7187" y1="37.3828" x2="21.7187" y2="35.625" gradientUnits="userSpaceOnUse">
<stop stop-color="#AC91C9"/>
<stop offset="1" stop-color="#C2B3D6" stop-opacity="0"/>
</linearGradient>
<linearGradient id="paint15_linear_475_8998" x1="20" y1="35.0977" x2="20" y2="35.7422" gradientUnits="userSpaceOnUse">
<stop stop-color="#CFCBD7"/>
<stop offset="1" stop-color="#CFCBD7" stop-opacity="0"/>
</linearGradient>
<radialGradient id="paint16_radial_475_8998" cx="0" cy="0" r="1" gradientUnits="userSpaceOnUse" gradientTransform="translate(36.6016 34.6094) rotate(90) scale(2.42186 1.5691)">
<stop offset="0.241932" stop-color="#F7F4FE"/>
<stop offset="1" stop-color="#C8BCDB" stop-opacity="0"/>
</radialGradient>
<radialGradient id="paint17_radial_475_8998" cx="0" cy="0" r="1" gradientUnits="userSpaceOnUse" gradientTransform="translate(17.8125 31.6406) rotate(90) scale(5.74219 8.1039)">
<stop offset="0.645161" stop-color="#9884AF"/>
<stop offset="1" stop-color="#9884AF" stop-opacity="0"/>
</radialGradient>
<linearGradient id="paint18_linear_475_8998" x1="25.3516" y1="27.5098" x2="36.6016" y2="27.5098" gradientUnits="userSpaceOnUse">
<stop stop-color="#66636F"/>
<stop offset="1" stop-color="#6B6873"/>
</linearGradient>
<linearGradient id="paint19_linear_475_8998" x1="2.53906" y1="29.6094" x2="5.89844" y2="29.6484" gradientUnits="userSpaceOnUse">
<stop offset="0.342105" stop-color="#5E5C64"/>
<stop offset="1" stop-color="#5E5C64" stop-opacity="0"/>
</linearGradient>
<linearGradient id="paint20_linear_475_8998" x1="2.10937" y1="27.7344" x2="3.55469" y2="27.7344" gradientUnits="userSpaceOnUse">
<stop stop-color="#8F8F91"/>
<stop offset="1" stop-color="#6D6C71" stop-opacity="0"/>
</linearGradient>
<linearGradient id="paint21_linear_475_8998" x1="20" y1="19.9219" x2="20" y2="20.8594" gradientUnits="userSpaceOnUse">
<stop stop-color="#706F76"/>
<stop offset="1" stop-color="#706F76" stop-opacity="0"/>
</linearGradient>
<radialGradient id="paint22_radial_475_8998" cx="0" cy="0" r="1" gradientUnits="userSpaceOnUse" gradientTransform="translate(17.0312 29.8828) rotate(53.6782) scale(10.6177 10.5772)">
<stop offset="0.59701" stop-color="#4B4357"/>
<stop offset="1" stop-color="#524C5D" stop-opacity="0"/>
</radialGradient>
<linearGradient id="paint23_linear_475_8998" x1="37.4965" y1="26.5272" x2="34.9793" y2="26.5272" gradientUnits="userSpaceOnUse">
<stop stop-color="#8D8D92" stop-opacity="0"/>
<stop offset="0.126636" stop-color="#8D8D92" stop-opacity="0.7"/>
<stop offset="0.192587" stop-color="#8D8D92" stop-opacity="0.898462"/>
<stop offset="0.252719" stop-color="#8D8D92"/>
<stop offset="0.334188" stop-color="#8D8D92" stop-opacity="0.933652"/>
<stop offset="0.588869" stop-color="#8D8D92" stop-opacity="0.278372"/>
<stop offset="0.75337" stop-color="#8D8D92" stop-opacity="0.105137"/>
<stop offset="1" stop-color="#8D8D92" stop-opacity="0"/>
</linearGradient>
<linearGradient id="paint24_linear_475_8998" x1="20" y1="19.9219" x2="20" y2="20.332" gradientUnits="userSpaceOnUse">
<stop stop-color="#5F5E65"/>
<stop offset="1" stop-color="#5F5E65" stop-opacity="0"/>
</linearGradient>
<linearGradient id="paint25_linear_475_8998" x1="24.1406" y1="35.0977" x2="24.1406" y2="34.3359" gradientUnits="userSpaceOnUse">
<stop stop-color="#5C536A"/>
<stop offset="1" stop-color="#5C536A" stop-opacity="0"/>
</linearGradient>
<radialGradient id="paint26_radial_475_8998" cx="0" cy="0" r="1" gradientUnits="userSpaceOnUse" gradientTransform="translate(26.6797 23.3594) rotate(143.867) scale(13.9777)">
<stop stop-color="#A6A2AE"/>
<stop offset="1" stop-color="#A6A2AF"/>
</radialGradient>
<radialGradient id="paint27_radial_475_8998" cx="0" cy="0" r="1" gradientUnits="userSpaceOnUse" gradientTransform="translate(20.0939 27.2927) rotate(99.2333) scale(8.98854)">
<stop stop-color="#8B8794" stop-opacity="0"/>
<stop offset="0.931124" stop-color="#8B8794" stop-opacity="0"/>
<stop offset="0.947057" stop-color="#8B8794" stop-opacity="0.174121"/>
<stop offset="0.991566" stop-color="#8B8794"/>
</radialGradient>
<radialGradient id="paint28_radial_475_8998" cx="0" cy="0" r="1" gradientUnits="userSpaceOnUse" gradientTransform="translate(19.9173 27.6007) rotate(-42.1968) scale(9.08349)">
<stop stop-color="#CDCDD2" stop-opacity="0"/>
<stop offset="0.931124" stop-color="#CDCDD2" stop-opacity="0"/>
<stop offset="0.947057" stop-color="#CDCDD2" stop-opacity="0.174121"/>
<stop offset="0.991566" stop-color="#CDCDD2"/>
</radialGradient>
<radialGradient id="paint29_radial_475_8998" cx="0" cy="0" r="1" gradientUnits="userSpaceOnUse" gradientTransform="translate(20.2127 27.2618) rotate(-43.3851) scale(6.5642)">
<stop offset="0.890969" stop-color="#6A6375"/>
<stop offset="0.969752" stop-color="#6A6375" stop-opacity="0.168599"/>
<stop offset="1" stop-color="#6A6375" stop-opacity="0"/>
</radialGradient>
<radialGradient id="paint30_radial_475_8998" cx="0" cy="0" r="1" gradientUnits="userSpaceOnUse" gradientTransform="translate(19.6843 27.6274) rotate(135) scale(6.50371 6.55816)">
<stop offset="0.894073" stop-color="#B7B6BD"/>
<stop offset="0.941239" stop-color="#B7B6BD" stop-opacity="0.690072"/>
<stop offset="0.979531" stop-color="#B7B6BD" stop-opacity="0.179753"/>
<stop offset="1" stop-color="#B7B6BD" stop-opacity="0"/>
</radialGradient>
<radialGradient id="paint31_radial_475_8998" cx="0" cy="0" r="1" gradientUnits="userSpaceOnUse" gradientTransform="translate(23.3984 25.8203) rotate(144.831) scale(8.13176 8.96273)">
<stop offset="0.289467" stop-color="#67616D"/>
<stop offset="1" stop-color="#4D3E5C"/>
</radialGradient>
<radialGradient id="paint32_radial_475_8998" cx="0" cy="0" r="1" gradientUnits="userSpaceOnUse" gradientTransform="translate(20 27.4707) rotate(90) scale(6.21094)">
<stop offset="0.782726" stop-color="#2C2634" stop-opacity="0"/>
<stop offset="0.815252" stop-color="#2C2634" stop-opacity="0.0453366"/>
<stop offset="0.848925" stop-color="#2C2634" stop-opacity="0.134552"/>
<stop offset="0.90478" stop-color="#2C2634" stop-opacity="0.412445"/>
<stop offset="1" stop-color="#2C2634" stop-opacity="0.9"/>
</radialGradient>
<linearGradient id="paint33_linear_475_8998" x1="21.6016" y1="30.3125" x2="17.5781" y2="24.9609" gradientUnits="userSpaceOnUse">
<stop stop-color="#463755"/>
<stop offset="1" stop-color="#473F51"/>
</linearGradient>
<radialGradient id="paint34_radial_475_8998" cx="0" cy="0" r="1" gradientUnits="userSpaceOnUse" gradientTransform="translate(17.9688 29.7656) rotate(-48.6139) scale(5.25852 3.60598)">
<stop stop-color="#544E5C"/>
<stop offset="1" stop-color="#544E5C" stop-opacity="0"/>
</radialGradient>
<radialGradient id="paint35_radial_475_8998" cx="0" cy="0" r="1" gradientUnits="userSpaceOnUse" gradientTransform="translate(23.0664 24.8828) rotate(146.088) scale(2.80061)">
<stop stop-color="#544E5C"/>
<stop offset="1" stop-color="#544E5C" stop-opacity="0"/>
</radialGradient>
<linearGradient id="paint36_linear_475_8998" x1="23.0937" y1="24.1966" x2="22.1743" y2="26.3184" gradientUnits="userSpaceOnUse">
<stop offset="0.0511788" stop-color="#F3F2F4"/>
<stop offset="1" stop-color="#F3F2F4" stop-opacity="0"/>
</linearGradient>
</defs>
</svg>
